# xmcd CD database file
#
# Track frame offsets:
#	150
#	17086
#	34839
#	51152
#	70298
#	90114
#	110396
#	125159
#	141789
#	159728
#	179987
#	195408
#	213533
#	233756
#	251732
#	270302
#
# Disc length: 3829 seconds
#
# Revision: 0
# Processed by: cddbd v1.5.1PL0 Copyright (c) Steve Scherf et al.
# Submitted via: CDex 1.51
#
DISCID=e60ef310
DTITLE=矢沢永吉 - THE ORIGINAL （DISK2）
DYEAR=1990
DGENRE=ロック (日本)
TTITLE0=THE RIDE
TTITLE1=WHY YOU…
TTITLE2=LAHAINA
TTITLE3=あ・い・つ
TTITLE4=THE BORDER
TTITLE5=共犯者
TTITLE6=THIS IS A SONG FOR COCA-COLA
TTITLE7=I LOVE YOU, OK (1990 VERSION)
TTITLE8=YOKO
TTITLE9=逃亡者
TTITLE10=兄貴に相談
TTITLE11=PURE GOLD
TTITLE12=YOKOHAMA FOGGY NIGHT
TTITLE13=YES MY LOVE
TTITLE14=BALL AND CHAIN
TTITLE15=FLASH IN JAPAN
EXTD=YEAR: 1990
EXTT0=
EXTT1=
EXTT2=
EXTT3=
EXTT4=
EXTT5=
EXTT6=
EXTT7=
EXTT8=
EXTT9=
EXTT10=
EXTT11=
EXTT12=
EXTT13=
EXTT14=
EXTT15=
PLAYORDER=
